<svg width="127" height="11" viewBox="0 0 127 11" fill="none" xmlns="http://www.w3.org/2000/svg">
<path d="M-0.0015294 9.84211C0.166471 9.59944 0.278471 9.32878 0.334471 9.03011C0.399804 8.72211 0.432471 8.30678 0.432471 7.78411V2.29611C0.432471 1.78278 0.399804 1.37678 0.334471 1.07811C0.278471 0.770109 0.166471 0.494775 -0.0015294 0.252109V0.182109H2.54647V0.252109C2.3878 0.485442 2.2758 0.756109 2.21047 1.06411C2.14514 1.37211 2.11247 1.78278 2.11247 2.29611V7.78411C2.11247 8.30678 2.14514 8.72211 2.21047 9.03011C2.2758 9.32878 2.3878 9.59944 2.54647 9.84211V9.91211H-0.0015294V9.84211ZM4.97449 9.84211C5.14249 9.62744 5.25449 9.35678 5.31049 9.03011C5.37582 8.69411 5.40849 8.26478 5.40849 7.74211V0.756109L5.05849 0.224109V0.182109H7.53649L11.9885 7.56011H12.0725V2.32411C12.0725 1.80144 12.0398 1.38144 11.9745 1.06411C11.9185 0.746776 11.8065 0.476109 11.6385 0.252109V0.182109H13.7805V0.252109C13.6125 0.466775 13.4958 0.737442 13.4305 1.06411C13.3745 1.38144 13.3465 1.80144 13.3465 2.32411V9.91211H11.5545L6.76649 2.04411H6.68249V7.74211C6.68249 8.26478 6.71049 8.69411 6.76649 9.03011C6.83182 9.35678 6.94849 9.62744 7.11649 9.84211V9.91211H4.97449V9.84211ZM16.1712 9.84211C16.3299 9.63678 16.4419 9.41744 16.5072 9.18411C16.5725 8.94144 16.6052 8.59611 16.6052 8.14811V8.06411V2.01611C16.6052 1.53078 16.5725 1.16678 16.5072 0.924109C16.4512 0.681442 16.3392 0.457442 16.1712 0.252109V0.182109H22.6672V1.97411H22.5972C22.4292 1.73144 22.1819 1.55878 21.8552 1.45611C21.5285 1.35344 21.0572 1.30211 20.4412 1.30211H18.2852V4.57811H20.0772C20.6279 4.57811 21.0479 4.54078 21.3372 4.46611C21.6359 4.38211 21.8552 4.24678 21.9952 4.06011H22.0792V6.20211H21.9952C21.8552 6.02478 21.6359 5.89878 21.3372 5.82411C21.0479 5.74011 20.6279 5.69811 20.0772 5.69811H18.2852V8.06411C18.2852 8.55878 18.3179 8.92744 18.3832 9.17011C18.4485 9.41278 18.5792 9.63678 18.7752 9.84211V9.91211H16.1712V9.84211ZM24.6199 9.84211C24.7879 9.59944 24.8999 9.32878 24.9559 9.03011C25.0212 8.72211 25.0539 8.30678 25.0539 7.78411V2.29611C25.0539 1.78278 25.0212 1.37678 24.9559 1.07811C24.8999 0.770109 24.7879 0.494775 24.6199 0.252109V0.182109H27.1679V0.252109C27.0092 0.485442 26.8972 0.756109 26.8319 1.06411C26.7665 1.37211 26.7339 1.78278 26.7339 2.29611V7.78411C26.7339 8.30678 26.7665 8.72211 26.8319 9.03011C26.8972 9.32878 27.0092 9.59944 27.1679 9.84211V9.91211H24.6199V9.84211ZM29.5959 9.84211C29.7639 9.62744 29.8759 9.35678 29.9319 9.03011C29.9972 8.69411 30.0299 8.26478 30.0299 7.74211V0.756109L29.6799 0.224109V0.182109H32.1579L36.6099 7.56011H36.6939V2.32411C36.6939 1.80144 36.6612 1.38144 36.5959 1.06411C36.5399 0.746776 36.4279 0.476109 36.2599 0.252109V0.182109H38.4019V0.252109C38.2339 0.466775 38.1172 0.737442 38.0519 1.06411C37.9959 1.38144 37.9679 1.80144 37.9679 2.32411V9.91211H36.1759L31.3879 2.04411H31.3039V7.74211C31.3039 8.26478 31.3319 8.69411 31.3879 9.03011C31.4532 9.35678 31.5699 9.62744 31.7379 9.84211V9.91211H29.5959V9.84211ZM40.7926 9.84211C40.9606 9.59944 41.0726 9.32878 41.1286 9.03011C41.1939 8.72211 41.2266 8.30678 41.2266 7.78411V2.29611C41.2266 1.78278 41.1939 1.37678 41.1286 1.07811C41.0726 0.770109 40.9606 0.494775 40.7926 0.252109V0.182109H43.3406V0.252109C43.1819 0.485442 43.0699 0.756109 43.0046 1.06411C42.9393 1.37211 42.9066 1.78278 42.9066 2.29611V7.78411C42.9066 8.30678 42.9393 8.72211 43.0046 9.03011C43.0699 9.32878 43.1819 9.59944 43.3406 9.84211V9.91211H40.7926V9.84211ZM47.8126 9.84211C47.9993 9.60878 48.1253 9.33811 48.1906 9.03011C48.2653 8.72211 48.3026 8.30211 48.3026 7.77011V1.28811H47.3226C46.7253 1.28811 46.254 1.34878 45.9086 1.47011C45.5633 1.59144 45.3066 1.77811 45.1386 2.03011H45.0546V0.182109H53.2306V2.03011H53.1606C52.9926 1.77811 52.736 1.59144 52.3906 1.47011C52.0453 1.34878 51.574 1.28811 50.9766 1.28811H49.9826V7.77011C49.9826 8.30211 50.02 8.72211 50.0946 9.03011C50.1693 9.33811 50.3 9.60878 50.4866 9.84211V9.91211H47.8126V9.84211ZM62.1096 9.91211H54.9556V9.84211C55.1142 9.59944 55.2262 9.32411 55.2916 9.01611C55.3569 8.70811 55.3896 8.28344 55.3896 7.74211V2.29611C55.3896 1.78278 55.3569 1.37211 55.2916 1.06411C55.2356 0.756109 55.1236 0.485442 54.9556 0.252109V0.182109H61.9136V1.97411H61.8296C61.6429 1.73144 61.3909 1.55878 61.0736 1.45611C60.7562 1.35344 60.2942 1.30211 59.6876 1.30211H57.0696V4.43811H59.0716C59.6129 4.43811 60.0236 4.39611 60.3036 4.31211C60.5836 4.22811 60.8169 4.09744 61.0036 3.92011H61.0736V6.07611H61.0036C60.8262 5.88944 60.5929 5.75878 60.3036 5.68411C60.0142 5.60011 59.6036 5.55811 59.0716 5.55811H57.0696V8.79211H59.8976C60.4762 8.79211 60.9289 8.73144 61.2556 8.61011C61.5822 8.48878 61.8389 8.26011 62.0256 7.92411H62.1096V9.91211ZM69.8158 1.94611H69.7458V7.71411C69.7458 8.25544 69.7738 8.68944 69.8298 9.01611C69.8951 9.33344 70.0118 9.60878 70.1798 9.84211V9.91211H68.0518V9.84211C68.2198 9.61811 68.3318 9.34278 68.3878 9.01611C68.4531 8.68944 68.4858 8.25544 68.4858 7.71411V2.28211C68.4858 1.76878 68.4578 1.35811 68.4018 1.05011C68.3458 0.742109 68.2291 0.476109 68.0518 0.252109V0.182109H70.8378L73.7638 7.85411H73.8338L76.7178 0.182109H79.3638V0.252109C79.2051 0.485442 79.0931 0.756109 79.0278 1.06411C78.9718 1.37211 78.9438 1.78278 78.9438 2.29611V7.75611C78.9438 8.29744 78.9718 8.72211 79.0278 9.03011C79.0838 9.32878 79.1958 9.59944 79.3638 9.84211V9.91211H76.8578V9.84211C77.0258 9.59944 77.1378 9.32878 77.1938 9.03011C77.2591 8.72211 77.2918 8.29744 77.2918 7.75611V2.01611H77.2218L74.2678 9.91211H72.8538L69.8158 1.94611ZM81.7918 9.84211C81.9598 9.59944 82.0718 9.32878 82.1278 9.03011C82.1932 8.72211 82.2258 8.30678 82.2258 7.78411V2.29611C82.2258 1.78278 82.1932 1.37678 82.1278 1.07811C82.0718 0.770109 81.9598 0.494775 81.7918 0.252109V0.182109H84.3398V0.252109C84.1812 0.485442 84.0692 0.756109 84.0038 1.06411C83.9385 1.37211 83.9058 1.78278 83.9058 2.29611V7.78411C83.9058 8.30678 83.9385 8.72211 84.0038 9.03011C84.0692 9.32878 84.1812 9.59944 84.3398 9.84211V9.91211H81.7918V9.84211ZM86.7538 9.84211C86.9125 9.59944 87.0245 9.32878 87.0898 9.03011C87.1552 8.72211 87.1878 8.29744 87.1878 7.75611V2.28211C87.1878 1.76878 87.1552 1.35811 87.0898 1.05011C87.0338 0.742109 86.9218 0.476109 86.7538 0.252109V0.182109H90.2958C91.0052 0.182109 91.6258 0.289442 92.1578 0.504109C92.6898 0.718775 93.0958 1.02211 93.3758 1.41411C93.6652 1.79678 93.8098 2.24478 93.8098 2.75811C93.8098 3.27144 93.6605 3.72411 93.3618 4.11611C93.0725 4.50811 92.6572 4.81611 92.1158 5.04011C91.5838 5.26411 90.9585 5.37611 90.2398 5.37611L90.0578 5.33411L91.4158 5.06811L95.3078 9.88411V9.91211H93.1938L89.7218 5.43211H88.8538V7.75611C88.8538 8.29744 88.8818 8.72211 88.9378 9.03011C89.0032 9.32878 89.1198 9.59944 89.2878 9.84211V9.91211H86.7538V9.84211ZM90.0298 4.34011C90.6738 4.34011 91.1685 4.20478 91.5138 3.93411C91.8685 3.65411 92.0458 3.26678 92.0458 2.77211C92.0458 2.27744 91.8732 1.90411 91.5278 1.65211C91.1825 1.40011 90.6878 1.27411 90.0438 1.27411H88.8538V4.34011H90.0298ZM96.6654 9.84211C96.8241 9.59944 96.9361 9.32878 97.0014 9.03011C97.0667 8.72211 97.0994 8.29744 97.0994 7.75611V2.28211C97.0994 1.76878 97.0667 1.35811 97.0014 1.05011C96.9454 0.742109 96.8334 0.476109 96.6654 0.252109V0.182109H100.207C100.917 0.182109 101.537 0.289442 102.069 0.504109C102.601 0.718775 103.007 1.02211 103.287 1.41411C103.577 1.79678 103.721 2.24478 103.721 2.75811C103.721 3.27144 103.572 3.72411 103.273 4.11611C102.984 4.50811 102.569 4.81611 102.027 5.04011C101.495 5.26411 100.87 5.37611 100.151 5.37611L99.9694 5.33411L101.327 5.06811L105.219 9.88411V9.91211H103.105L99.6334 5.43211H98.7654V7.75611C98.7654 8.29744 98.7934 8.72211 98.8494 9.03011C98.9147 9.32878 99.0314 9.59944 99.1994 9.84211V9.91211H96.6654V9.84211ZM99.9414 4.34011C100.585 4.34011 101.08 4.20478 101.425 3.93411C101.78 3.65411 101.957 3.26678 101.957 2.77211C101.957 2.27744 101.785 1.90411 101.439 1.65211C101.094 1.40011 100.599 1.27411 99.9554 1.27411H98.7654V4.34011H99.9414ZM110.869 10.0941C109.917 10.0941 109.063 9.87944 108.307 9.45011C107.56 9.02078 106.977 8.42344 106.557 7.65811C106.137 6.89278 105.927 6.02478 105.927 5.05411C105.927 4.08344 106.137 3.21544 106.557 2.45011C106.977 1.67544 107.56 1.07344 108.307 0.644109C109.063 0.214776 109.917 0.000109315 110.869 0.000109315C111.821 0.000109315 112.67 0.214776 113.417 0.644109C114.163 1.07344 114.747 1.67544 115.167 2.45011C115.587 3.21544 115.797 4.08344 115.797 5.05411C115.797 6.02478 115.587 6.89278 115.167 7.65811C114.747 8.42344 114.159 9.02078 113.403 9.45011C112.656 9.87944 111.811 10.0941 110.869 10.0941ZM110.869 8.91811C111.485 8.91811 112.026 8.75944 112.493 8.44211C112.969 8.11544 113.328 7.66278 113.571 7.08411C113.823 6.49611 113.949 5.81944 113.949 5.05411C113.949 4.27944 113.823 3.60278 113.571 3.02411C113.319 2.43611 112.959 1.97878 112.493 1.65211C112.026 1.32544 111.485 1.16211 110.869 1.16211C110.243 1.16211 109.697 1.32544 109.231 1.65211C108.764 1.97878 108.4 2.43611 108.139 3.02411C107.887 3.60278 107.761 4.27944 107.761 5.05411C107.761 5.81944 107.887 6.49611 108.139 7.08411C108.391 7.66278 108.75 8.11544 109.217 8.44211C109.693 8.75944 110.243 8.91811 110.869 8.91811ZM117.815 9.84211C117.973 9.59944 118.085 9.32878 118.151 9.03011C118.216 8.72211 118.249 8.29744 118.249 7.75611V2.28211C118.249 1.76878 118.216 1.35811 118.151 1.05011C118.095 0.742109 117.983 0.476109 117.815 0.252109V0.182109H121.357C122.066 0.182109 122.687 0.289442 123.219 0.504109C123.751 0.718775 124.157 1.02211 124.437 1.41411C124.726 1.79678 124.871 2.24478 124.871 2.75811C124.871 3.27144 124.721 3.72411 124.423 4.11611C124.133 4.50811 123.718 4.81611 123.177 5.04011C122.645 5.26411 122.019 5.37611 121.301 5.37611L121.119 5.33411L122.477 5.06811L126.369 9.88411V9.91211H124.255L120.783 5.43211H119.915V7.75611C119.915 8.29744 119.943 8.72211 119.999 9.03011C120.064 9.32878 120.181 9.59944 120.349 9.84211V9.91211H117.815V9.84211ZM121.091 4.34011C121.735 4.34011 122.229 4.20478 122.575 3.93411C122.929 3.65411 123.107 3.26678 123.107 2.77211C123.107 2.27744 122.934 1.90411 122.589 1.65211C122.243 1.40011 121.749 1.27411 121.105 1.27411H119.915V4.34011H121.091Z" fill="white"/>
</svg>
