<?xml version="1.0" encoding="UTF-8"?>
<svg width="1024" height="1024" xmlns="http://www.w3.org/2000/svg">
  <rect width="1024" height="1024" fill="hsl(18, 76%, 45.5%)"/>
  <circle cx="146.56960265975619" cy="-226.69752387814697" r="54.23360024179602" fill="hsl(18, 76%, 65.5%)" opacity="0.16"/>
  <circle cx="-15.758465137574547" cy="-179.87301046443463" r="27.295925140762154" fill="hsl(23, 76%, 65.5%)" opacity="0.16"/>
  <circle cx="-149.7448234516163" cy="-1.4198470928783848" r="21.232271760105846" fill="hsl(28, 76%, 65.5%)" opacity="0.16"/>
  <circle cx="-222.58493882948198" cy="224.73265509528346" r="41.617535054032224" fill="hsl(33, 76%, 65.5%)" opacity="0.16"/>
  <circle cx="-216.4450106388357" cy="392.22144059063527" r="69.70959796156367" fill="hsl(38, 76%, 65.5%)" opacity="0.16"/>
  <circle cx="-132.82830743822933" cy="422.27391649024776" r="79.68074739870146" fill="hsl(43, 76%, 65.5%)" opacity="0.16"/>
  <circle cx="7.792885594354459" cy="300.7559337956442" r="62.3635545572527" fill="hsl(48, 76%, 65.5%)" opacity="0.16"/>
  <circle cx="170.98959606897913" cy="84.8192985389531" r="33.67936667331891" fill="hsl(53, 76%, 65.5%)" opacity="0.16"/>
  <circle cx="316.8055775772004" cy="-123.97761561560412" r="20.000293803478897" fill="hsl(58, 76%, 65.5%)" opacity="0.16"/>
  <circle cx="409.53999233566384" cy="-227.43435739935916" r="33.90281245998695" fill="hsl(63, 76%, 65.5%)" opacity="0.16"/>
  <circle cx="426.488221385716" cy="-176.8936045952293" r="62.60501110479923" fill="hsl(68, 76%, 65.5%)" opacity="0.16"/>
  <circle cx="363.50074716575176" cy="3.874537031955981" r="79.71822067084611" fill="hsl(73, 76%, 65.5%)" opacity="0.16"/>
  <circle cx="235.99910012977966" cy="229.85198589480345" r="69.5086352047135" fill="hsl(78, 76%, 65.5%)" opacity="0.16"/>
  <circle cx="75.20013024760293" cy="394.7580167980764" r="41.36290050004804" fill="hsl(83, 76%, 65.5%)" opacity="0.16"/>
  <circle cx="-79.52696659349203" cy="421.0347466801538" r="21.158075243613297" fill="hsl(88, 76%, 65.5%)" opacity="0.16"/>
  <circle cx="-190.29960079065114" cy="296.3238188922644" r="27.470382596849714" fill="hsl(93, 76%, 65.5%)" opacity="0.16"/>
  <circle cx="-229.99676816173212" cy="79.27873143505302" r="54.49631628988857" fill="hsl(98, 76%, 65.5%)" opacity="0.16"/>
  <circle cx="-188.8992176471814" cy="-128.02081963731112" r="77.38835752182882" fill="hsl(103, 76%, 65.5%)" opacity="0.16"/>
  <circle cx="-77.06906294014354" cy="-228.07861631065902" r="75.09966915608169" fill="hsl(108, 76%, 65.5%)" opacity="0.16"/>
  <circle cx="78.11377387410377" cy="-173.83591336331483" r="49.73446072128788" fill="hsl(113, 76%, 65.5%)" opacity="0.16"/>
  <circle cx="238.6551221527915" cy="9.19609844297301" r="24.61338787474488" fill="hsl(118, 76%, 65.5%)" opacity="0.16"/>
  <circle cx="365.2488607620349" cy="234.93460400163033" r="22.832649139801287" fill="hsl(123, 76%, 65.5%)" opacity="0.16"/>
  <circle cx="426.9004273793072" cy="397.2112568869736" r="46.02944749706681" fill="hsl(128, 76%, 65.5%)" opacity="0.16"/>
  <circle cx="408.51536832314537" cy="419.70481160437964" r="72.87675351438808" fill="hsl(133, 76%, 65.5%)" opacity="0.16"/>
  <circle cx="314.5949872518486" cy="291.8361978987647" r="78.69127785213509" fill="hsl(138, 76%, 65.5%)" opacity="0.16"/>
  <circle cx="168.13426903947288" cy="73.74402279808177" r="58.12717364923607" fill="hsl(143, 76%, 65.5%)" opacity="0.16"/>
  <circle cx="4.991905500528446" cy="-131.9995559635774" r="30.090983473610972" fill="hsl(148, 76%, 65.5%)" opacity="0.16"/>
  <circle cx="-134.8891629818106" cy="-228.6301184625072" r="20.359051277214146" fill="hsl(153, 76%, 65.5%)" opacity="0.16"/>
  <circle cx="-217.26117232025376" cy="-170.70080126127203" r="37.87887064030805" fill="hsl(158, 76%, 65.5%)" opacity="0.16"/>
  <circle cx="-221.95658180449198" cy="14.543332589837163" r="66.54280043725072" fill="hsl(163, 76%, 65.5%)" opacity="0.16"/>
  <circle cx="-147.82579143465313" cy="239.979072421209" r="79.99735580321801" fill="hsl(168, 76%, 65.5%)" opacity="0.16"/>
  <circle cx="-13.018604094972133" cy="399.58046725954443" r="65.87248058360072" fill="hsl(173, 76%, 65.5%)" opacity="0.16"/>
  <circle cx="149.45947918877428" cy="418.2844872717894" r="37.15451991511547" fill="hsl(178, 76%, 65.5%)" opacity="0.16"/>
  <circle cx="299.82815700746835" cy="287.29433958781044" r="20.246634396706526" fill="hsl(183, 76%, 65.5%)" opacity="0.16"/>
  <circle cx="401.2719327401171" cy="68.21673744090018" r="30.693855999290015" fill="hsl(188, 76%, 65.5%)" opacity="0.16"/>
  <text x="512" y="512" font-family="Arial, sans-serif" font-size="48" fill="white" text-anchor="middle" dominant-baseline="middle" opacity="0.3">
    Iteration 3
  </text>
  <text x="512" y="580" font-family="Arial, sans-serif" font-size="24" fill="white" text-anchor="middle" opacity="0.2">
    Demo Placeholder
  </text>
</svg>