<?xml version="1.0" encoding="UTF-8"?>
<svg width="1024" height="1024" xmlns="http://www.w3.org/2000/svg">
  <rect width="1024" height="1024" fill="hsl(48, 86%, 38%)"/>
  <circle cx="475.95613371688506" cy="44.70998715272685" r="79.68074739870146" fill="hsl(48, 86%, 58%)" opacity="0.26"/>
  <circle cx="403.4251027969263" cy="-184.4857253270115" r="62.3635545572527" fill="hsl(53, 86%, 58%)" opacity="0.26"/>
  <circle cx="256.6050243918675" cy="-279.88335597337846" r="33.67936667331891" fill="hsl(58, 86%, 58%)" opacity="0.26"/>
  <circle cx="71.44257422451247" cy="-196.61590846428982" r="20.000293803478897" fill="hsl(63, 86%, 58%)" opacity="0.26"/>
  <circle cx="-106.72802213796052" cy="26.154635546972784" r="33.90281245998695" fill="hsl(68, 86%, 58%)" opacity="0.26"/>
  <circle cx="-234.28438878923464" cy="283.6558083261422" r="62.60501110479923" fill="hsl(73, 86%, 58%)" opacity="0.26"/>
  <circle cx="-279.9962784892673" cy="454.7807847483622" r="79.71822067084611" fill="hsl(78, 86%, 58%)" opacity="0.26"/>
  <circle cx="-232.67182638160284" cy="459.0468145007473" r="69.5086352047135" fill="hsl(83, 86%, 58%)" opacity="0.26"/>
  <circle cx="-103.89770884016528" cy="294.4475171321966" r="41.36290050004804" fill="hsl(88, 86%, 58%)" opacity="0.26"/>
  <circle cx="74.79767900654375" cy="38.39651413010706" r="21.158075243613297" fill="hsl(93, 86%, 58%)" opacity="0.26"/>
  <circle cx="259.66347399412354" cy="-188.68140688635208" r="27.470382596849714" fill="hsl(98, 86%, 58%)" opacity="0.26"/>
  <circle cx="405.438082089616" cy="-279.98795147274916" r="54.49631628988857" fill="hsl(103, 86%, 58%)" opacity="0.26"/>
  <circle cx="476.4307951640507" cy="-192.58022500598724" r="77.38835752182882" fill="hsl(108, 86%, 58%)" opacity="0.26"/>
  <circle cx="455.26012109937955" cy="32.43255297321606" r="75.09966915608169" fill="hsl(113, 86%, 58%)" opacity="0.26"/>
  <circle cx="347.1093792597044" cy="289.22335705959665" r="49.73446072128788" fill="hsl(118, 86%, 58%)" opacity="0.26"/>
  <circle cx="178.45764313636272" cy="457.0194596243373" r="24.61338787474488" fill="hsl(123, 86%, 58%)" opacity="0.26"/>
  <circle cx="-9.403260332724813" cy="456.9037317448109" r="22.832649139801287" fill="hsl(128, 86%, 58%)" opacity="0.26"/>
  <circle cx="-170.47843010026673" cy="288.93060205105803" r="46.02944749706681" fill="hsl(133, 86%, 58%)" opacity="0.26"/>
  <circle cx="-265.3310469142316" cy="32.10045809060087" r="72.87675351438808" fill="hsl(138, 86%, 58%)" opacity="0.26"/>
  <circle cx="-270.7378820778999" cy="-192.79547035025524" r="78.69127785213509" fill="hsl(143, 86%, 58%)" opacity="0.26"/>
  <circle cx="-185.37515377323695" cy="-279.9851140299621" r="58.12717364923607" fill="hsl(148, 86%, 58%)" opacity="0.26"/>
  <circle cx="-30.14263501845275" cy="-188.46182115018814" r="30.090983473610972" fill="hsl(153, 86%, 58%)" opacity="0.26"/>
  <circle cx="156.9533396719219" cy="38.72957355680823" r="20.359051277214146" fill="hsl(158, 86%, 58%)" opacity="0.26"/>
  <circle cx="330.1051504934484" cy="294.7374071968598" r="37.87887064030805" fill="hsl(163, 86%, 58%)" opacity="0.26"/>
  <circle cx="446.9191952764985" cy="459.15719537630457" r="66.54280043725072" fill="hsl(168, 86%, 58%)" opacity="0.26"/>
  <circle cx="478.7953218259437" cy="454.65974258429037" r="79.99735580321801" fill="hsl(173, 86%, 58%)" opacity="0.26"/>
  <circle cx="417.9291426437013" cy="283.3602711435398" r="65.87248058360072" fill="hsl(178, 86%, 58%)" opacity="0.26"/>
  <circle cx="279.22282117579454" cy="25.823599100713537" r="37.15451991511547" fill="hsl(183, 86%, 58%)" opacity="0.26"/>
  <circle cx="96.63650246964653" cy="-196.82675256094262" r="20.246634396706526" fill="hsl(188, 86%, 58%)" opacity="0.26"/>
  <circle cx="-85.12631473499363" cy="-279.8748444472397" r="30.693855999290015" fill="hsl(193, 86%, 58%)" opacity="0.26"/>
  <circle cx="-221.56375358656481" cy="-184.26186128182013" r="58.89105736128156" fill="hsl(198, 86%, 58%)" opacity="0.26"/>
  <circle cx="-279.2711706321706" cy="45.04391695854515" r="78.91386158852264" fill="hsl(203, 86%, 58%)" opacity="0.26"/>
  <circle cx="-244.11977756251702" cy="300.19639976579145" r="72.35339481438047" fill="hsl(208, 86%, 58%)" opacity="0.26"/>
  <circle cx="-124.71586134874727" cy="461.19338760815066" r="45.241319935858726" fill="hsl(213, 86%, 58%)" opacity="0.26"/>
  <circle cx="49.70633496284625" cy="452.3154814560328" r="22.504353562530987" fill="hsl(218, 86%, 58%)" opacity="0.26"/>
  <circle cx="236.44217452842395" cy="277.73809929388796" r="25.04675772114205" fill="hsl(223, 86%, 58%)" opacity="0.26"/>
  <circle cx="389.77221118224907" cy="19.5677117994163" r="50.53105775316241" fill="hsl(228, 86%, 58%)" opacity="0.26"/>
  <circle cx="472.15590437948845" cy="-200.7741137651476" r="75.52710573602356" fill="hsl(233, 86%, 58%)" opacity="0.26"/>
  <circle cx="463.4228527937112" cy="-279.657173900796" r="77.05365042946428" fill="hsl(238, 86%, 58%)" opacity="0.26"/>
  <circle cx="365.71121202893715" cy="-179.98153284391714" r="53.70719368235672" fill="hsl(243, 86%, 58%)" opacity="0.26"/>
  <circle cx="202.94419955699024" cy="51.373797941586226" r="26.952360160289995" fill="hsl(248, 86%, 58%)" opacity="0.26"/>
  <circle cx="14.972856729017366" cy="305.59879136052797" r="21.387420417215843" fill="hsl(253, 86%, 58%)" opacity="0.26"/>
  <circle cx="-152.18087600092767" cy="463.127460632879" r="42.128754388882136" fill="hsl(258, 86%, 58%)" opacity="0.26"/>
  <circle cx="-257.59193517032236" cy="449.8716111465003" r="70.10687527530123" fill="hsl(263, 86%, 58%)" opacity="0.26"/>
  <circle cx="-275.4520171552875" cy="272.06567604319514" r="79.59882776121457" fill="hsl(268, 86%, 58%)" opacity="0.26"/>
  <circle cx="-201.38835099376837" cy="13.334564896422165" r="61.87775450545502" fill="hsl(273, 86%, 58%)" opacity="0.26"/>
  <circle cx="-53.534305222764715" cy="-204.63643793635788" r="33.236328534451516" fill="hsl(278, 86%, 58%)" opacity="0.26"/>
  <circle cx="131.9102931628638" cy="-279.33216393202224" r="20.007344799241405" fill="hsl(283, 86%, 58%)" opacity="0.26"/>
  <circle cx="309.54213887184244" cy="-175.6220460018946" r="34.353469937392646" fill="hsl(288, 86%, 58%)" opacity="0.26"/>
  <circle cx="435.87076094741565" cy="57.71742687619348" r="63.08494265743475" fill="hsl(293, 86%, 58%)" opacity="0.26"/>
  <circle cx="479.96650684076155" cy="310.94305457783776" r="79.78617944253611" fill="hsl(298, 86%, 58%)" opacity="0.26"/>
  <circle cx="431.03320006428703" cy="464.9588676353743" r="69.10214021417414" fill="hsl(303, 86%, 58%)" opacity="0.26"/>
  <circle cx="301.0514207256091" cy="447.32882260438265" r="40.855681366933496" fill="hsl(308, 86%, 58%)" opacity="0.26"/>
  <circle cx="121.84524167987134" cy="266.34460513999113" r="21.016466899748213" fill="hsl(313, 86%, 58%)" opacity="0.26"/>
  <circle cx="-62.709414408537384" cy="7.125920672106304" r="27.824579100523312" fill="hsl(318, 86%, 58%)" opacity="0.26"/>
  <circle cx="-207.42713116052448" cy="-208.41263309034935" r="55.02067100908421" fill="hsl(323, 86%, 58%)" opacity="0.26"/>
  <circle cx="-276.87596430838397" cy="-278.89990643008775" r="77.60078114590371" fill="hsl(328, 86%, 58%)" opacity="0.26"/>
  <circle cx="-254.0524173847881" cy="-171.18463330140355" r="74.8048603847031" fill="hsl(333, 86%, 58%)" opacity="0.26"/>
  <circle cx="-144.5444906756598" cy="64.07301024571133" r="49.203465379281" fill="hsl(338, 86%, 58%)" opacity="0.26"/>
  <circle cx="24.836456138144342" cy="316.22767844897044" r="24.334400630740333" fill="hsl(343, 86%, 58%)" opacity="0.26"/>
  <text x="512" y="512" font-family="Arial, sans-serif" font-size="48" fill="white" text-anchor="middle" dominant-baseline="middle" opacity="0.3">
    Iteration 8
  </text>
  <text x="512" y="580" font-family="Arial, sans-serif" font-size="24" fill="white" text-anchor="middle" opacity="0.2">
    Demo Placeholder
  </text>
</svg>