<?xml version="1.0" encoding="UTF-8"?>
<svg width="1024" height="1024" xmlns="http://www.w3.org/2000/svg">
  <rect width="1024" height="1024" fill="hsl(30, 80%, 42.5%)"/>
  <circle cx="-235.62349613209847" cy="199.28176491212918" r="21.232271760105846" fill="hsl(30, 80%, 62.5%)" opacity="0.2"/>
  <circle cx="-146.93911394963717" cy="392.14947469370594" r="41.617535054032224" fill="hsl(35, 80%, 62.5%)" opacity="0.2"/>
  <circle cx="2.204575630375956" cy="447.6147215653674" r="69.70959796156367" fill="hsl(40, 80%, 62.5%)" opacity="0.2"/>
  <circle cx="175.29199583073543" cy="339.5913332549823" r="79.68074739870146" fill="hsl(45, 80%, 62.5%)" opacity="0.2"/>
  <circle cx="329.9453095515762" cy="118.88439719692741" r="62.3635545572527" fill="hsl(50, 80%, 62.5%)" opacity="0.2"/>
  <circle cx="428.2999918711586" cy="-110.70416593968827" r="33.67936667331891" fill="hsl(55, 80%, 62.5%)" opacity="0.2"/>
  <circle cx="446.2753863181836" cy="-241.19526749145723" r="20.000293803478897" fill="hsl(60, 80%, 62.5%)" opacity="0.2"/>
  <circle cx="379.4704894182216" cy="-211.2169034188766" r="33.90281245998695" fill="hsl(65, 80%, 62.5%)" opacity="0.2"/>
  <circle cx="244.2414698346148" cy="-34.86836677014037" r="62.60501110479923" fill="hsl(70, 80%, 62.5%)" opacity="0.2"/>
  <circle cx="73.69710783836675" cy="204.91087014695523" r="79.71822067084611" fill="hsl(75, 80%, 62.5%)" opacity="0.2"/>
  <circle cx="-90.40738881127942" cy="395.34888555637224" r="69.5086352047135" fill="hsl(80, 80%, 62.5%)" opacity="0.2"/>
  <circle cx="-207.8935159900845" cy="446.8797051349887" r="41.36290050004804" fill="hsl(85, 80%, 62.5%)" opacity="0.2"/>
  <circle cx="-249.99657229274624" cy="335.2675792437143" r="21.158075243613297" fill="hsl(90, 80%, 62.5%)" opacity="0.2"/>
  <circle cx="-206.40826114095" cy="113.00543467678924" r="27.470382596849714" fill="hsl(95, 80%, 62.5%)" opacity="0.2"/>
  <circle cx="-87.80052130015224" cy="-115.37336903415178" r="54.49631628988857" fill="hsl(100, 80%, 62.5%)" opacity="0.2"/>
  <circle cx="76.78733592707977" cy="-242.4587119866095" r="77.38835752182882" fill="hsl(105, 80%, 62.5%)" opacity="0.2"/>
  <circle cx="247.05846288932432" cy="-208.48037162678213" r="75.09966915608169" fill="hsl(110, 80%, 62.5%)" opacity="0.2"/>
  <circle cx="381.3245492930673" cy="-29.41889235211059" r="49.73446072128788" fill="hsl(115, 80%, 62.5%)" opacity="0.2"/>
  <circle cx="446.7125744932046" cy="210.51031422173517" r="24.61338787474488" fill="hsl(120, 80%, 62.5%)" opacity="0.2"/>
  <circle cx="427.213269433639" cy="398.46479324580497" r="22.832649139801287" fill="hsl(125, 80%, 62.5%)" opacity="0.2"/>
  <circle cx="327.60074405499086" cy="446.0466163653342" r="46.02944749706681" fill="hsl(130, 80%, 62.5%)" opacity="0.2"/>
  <circle cx="172.2636186782288" cy="330.8773086807117" r="72.87675351438808" fill="hsl(135, 80%, 62.5%)" opacity="0.2"/>
  <circle cx="-0.7661608327728544" cy="107.12279516608905" r="78.69127785213509" fill="hsl(140, 80%, 62.5%)" opacity="0.2"/>
  <circle cx="-149.12486982919307" cy="-119.98168021188982" r="58.12717364923607" fill="hsl(145, 80%, 62.5%)" opacity="0.2"/>
  <circle cx="-236.48912215784486" cy="-243.62533407764658" r="30.090983473610972" fill="hsl(150, 80%, 62.5%)" opacity="0.2"/>
  <circle cx="-241.46910191385518" cy="-205.65662403273046" r="20.359051277214146" fill="hsl(155, 80%, 62.5%)" opacity="0.2"/>
  <circle cx="-162.84553637008668" cy="-23.932827688725624" r="37.87887064030805" fill="hsl(160, 80%, 62.5%)" opacity="0.2"/>
  <circle cx="-19.86821646436438" cy="216.07851402113732" r="66.54280043725072" fill="hsl(165, 80%, 62.5%)" opacity="0.2"/>
  <circle cx="152.45702338203333" cy="401.49631681004536" r="79.99735580321801" fill="hsl(170, 80%, 62.5%)" opacity="0.2"/>
  <circle cx="311.93895440186037" cy="445.11569079328734" r="65.87248058360072" fill="hsl(175, 80%, 62.5%)" opacity="0.2"/>
  <circle cx="419.5308377546697" cy="326.4217628150241" r="37.15451991511547" fill="hsl(180, 80%, 62.5%)" opacity="0.2"/>
  <circle cx="448.89042799757976" cy="101.23814184721849" r="20.246634396706526" fill="hsl(185, 80%, 62.5%)" opacity="0.2"/>
  <circle cx="392.8294734876196" cy="-124.52779657783407" r="30.693855999290015" fill="hsl(190, 80%, 62.5%)" opacity="0.2"/>
  <circle cx="265.0736510829687" cy="-244.69480392873322" r="58.89105736128156" fill="hsl(195, 80%, 62.5%)" opacity="0.2"/>
  <circle cx="96.90204174835864" cy="-202.74645898706666" r="78.91386158852264" fill="hsl(200, 80%, 62.5%)" opacity="0.2"/>
  <circle cx="-70.51107936117833" cy="-18.411723839869325" r="72.35339481438047" fill="hsl(205, 80%, 62.5%)" opacity="0.2"/>
  <circle cx="-196.1771414613097" cy="221.61389526344095" r="45.241319935858726" fill="hsl(210, 80%, 62.5%)" opacity="0.2"/>
  <circle cx="-249.3287097927887" cy="404.44259915482326" r="22.504353562530987" fill="hsl(215, 80%, 62.5%)" opacity="0.2"/>
  <circle cx="-216.95242670231835" cy="444.0871916168588" r="25.04675772114205" fill="hsl(220, 80%, 62.5%)" opacity="0.2"/>
  <circle cx="-106.97513545279352" cy="321.9022013508074" r="50.53105775316241" fill="hsl(225, 80%, 62.5%)" opacity="0.2"/>
  <circle cx="53.67688746577944" cy="95.35313847192919" r="75.52710573602356" fill="hsl(230, 80%, 62.5%)" opacity="0.2"/>
  <circle cx="225.6704239077589" cy="-129.01043282108304" r="77.05365042946428" fill="hsl(235, 80%, 62.5%)" opacity="0.2"/>
  <circle cx="366.89545766786097" cy="-245.66681917161708" r="53.70719368235672" fill="hsl(240, 80%, 62.5%)" opacity="0.2"/>
  <circle cx="442.77517508637095" cy="-199.75069927270152" r="26.952360160289995" fill="hsl(245, 80%, 62.5%)" opacity="0.2"/>
  <circle cx="434.73157494157607" cy="-12.857141771958112" r="21.387420417215843" fill="hsl(250, 80%, 62.5%)" opacity="0.2"/>
  <text x="512" y="512" font-family="Arial, sans-serif" font-size="48" fill="white" text-anchor="middle" dominant-baseline="middle" opacity="0.3">
    Iteration 5
  </text>
  <text x="512" y="580" font-family="Arial, sans-serif" font-size="24" fill="white" text-anchor="middle" opacity="0.2">
    Demo Placeholder
  </text>
</svg>