<?xml version="1.0" encoding="UTF-8"?>
<svg width="1024" height="1024" xmlns="http://www.w3.org/2000/svg">
  <rect width="1024" height="1024" fill="hsl(54, 88%, 36.5%)"/>
  <circle cx="260.7262092442851" cy="-255.34080213502403" r="62.3635545572527" fill="hsl(54, 88%, 56.5%)" opacity="0.28"/>
  <circle cx="70.69106301989437" cy="-275.322303134211" r="33.67936667331891" fill="hsl(59, 88%, 56.5%)" opacity="0.28"/>
  <circle cx="-112.16823324685421" cy="-118.78386039661922" r="20.000293803478897" fill="hsl(64, 88%, 56.5%)" opacity="0.28"/>
  <circle cx="-243.08134638895132" cy="140.6520504776218" r="33.90281245998695" fill="hsl(69, 88%, 56.5%)" opacity="0.28"/>
  <circle cx="-289.99618055477436" cy="380.9686668064271" r="62.60501110479923" fill="hsl(74, 88%, 56.5%)" opacity="0.28"/>
  <circle cx="-241.42634812848712" cy="489.14132887964644" r="79.71822067084611" fill="hsl(79, 88%, 56.5%)" opacity="0.28"/>
  <circle cx="-109.26343802016962" cy="414.2947434797758" r="69.5086352047135" fill="hsl(84, 88%, 56.5%)" opacity="0.28"/>
  <circle cx="74.13446003303173" cy="191.63042923053166" r="41.36290050004804" fill="hsl(89, 88%, 56.5%)" opacity="0.28"/>
  <circle cx="263.86514436238997" cy="-74.1291076507836" r="21.158075243613297" fill="hsl(94, 88%, 56.5%)" opacity="0.28"/>
  <circle cx="413.4759263551322" cy="-257.9930043615744" r="27.470382596849714" fill="hsl(99, 88%, 56.5%)" opacity="0.28"/>
  <circle cx="486.33686872099946" cy="-273.48719732612" r="54.49631628988857" fill="hsl(104, 88%, 56.5%)" opacity="0.28"/>
  <circle cx="464.60907165462635" cy="-113.32452548975189" r="77.38835752182882" fill="hsl(109, 88%, 56.5%)" opacity="0.28"/>
  <circle cx="353.6122576612755" cy="147.1680039721049" r="75.09966915608169" fill="hsl(114, 88%, 56.5%)" opacity="0.28"/>
  <circle cx="180.52231795574068" cy="385.47668414548923" r="49.73446072128788" fill="hsl(119, 88%, 56.5%)" opacity="0.28"/>
  <circle cx="-12.28229349937547" cy="489.5212190690119" r="24.61338787474488" fill="hsl(124, 88%, 56.5%)" opacity="0.28"/>
  <circle cx="-177.596283523958" cy="410.3678382274382" r="22.832649139801287" fill="hsl(129, 88%, 56.5%)" opacity="0.28"/>
  <circle cx="-274.94502183302717" cy="185.24361343625242" r="46.02944749706681" fill="hsl(134, 88%, 56.5%)" opacity="0.28"/>
  <circle cx="-280.4941421325815" cy="-79.97201472220465" r="72.87675351438808" fill="hsl(139, 88%, 56.5%)" opacity="0.28"/>
  <circle cx="-192.88502624095372" cy="-260.54399221650743" r="78.69127785213509" fill="hsl(144, 88%, 56.5%)" opacity="0.28"/>
  <circle cx="-33.56744120314889" cy="-271.5464965161051" r="58.12717364923607" fill="hsl(149, 88%, 56.5%)" opacity="0.28"/>
  <circle cx="158.45211176855142" cy="-107.80487793002504" r="30.090983473610972" fill="hsl(154, 88%, 56.5%)" opacity="0.28"/>
  <circle cx="336.1605491906444" cy="153.67062178733156" r="20.359051277214146" fill="hsl(159, 88%, 56.5%)" opacity="0.28"/>
  <circle cx="456.0486477837748" cy="389.90398945150747" r="37.87887064030805" fill="hsl(164, 88%, 56.5%)" opacity="0.28"/>
  <circle cx="488.7636197687317" cy="489.79098100184916" r="66.54280043725072" fill="hsl(169, 88%, 56.5%)" opacity="0.28"/>
  <circle cx="426.2956990290619" cy="406.3531835349345" r="79.99735580321801" fill="hsl(174, 88%, 56.5%)" opacity="0.28"/>
  <circle cx="283.9392112067365" cy="178.83269695100097" r="65.87248058360072" fill="hsl(179, 88%, 56.5%)" opacity="0.28"/>
  <circle cx="96.54798937674249" cy="-85.76403880385593" r="37.15451991511547" fill="hsl(184, 88%, 56.5%)" opacity="0.28"/>
  <circle cx="-89.99805985959873" cy="-262.99304446608465" r="20.246634396706526" fill="hsl(189, 88%, 56.5%)" opacity="0.28"/>
  <circle cx="-230.02595762831658" cy="-269.5007493931359" r="30.693855999290015" fill="hsl(194, 88%, 56.5%)" opacity="0.28"/>
  <circle cx="-289.2519909119645" cy="-102.22647827212305" r="58.89105736128156" fill="hsl(199, 88%, 56.5%)" opacity="0.28"/>
  <circle cx="-253.1755611825833" cy="160.15806545615777" r="78.91386158852264" fill="hsl(204, 88%, 56.5%)" opacity="0.28"/>
  <circle cx="-130.6294366473985" cy="394.2493310047042" r="72.35339481438047" fill="hsl(209, 88%, 56.5%)" opacity="0.28"/>
  <circle cx="48.38281746186852" cy="489.9505384091133" r="45.241319935858726" fill="hsl(214, 88%, 56.5%)" opacity="0.28"/>
  <circle cx="240.03275806864562" cy="402.2519144544773" r="22.504353562530987" fill="hsl(219, 88%, 56.5%)" opacity="0.28"/>
  <circle cx="397.3977956870451" cy="172.39949231545862" r="25.04675772114205" fill="hsl(224, 88%, 56.5%)" opacity="0.28"/>
  <circle cx="481.94948081052763" cy="-91.50354233279378" r="50.53105775316241" fill="hsl(229, 88%, 56.5%)" opacity="0.28"/>
  <circle cx="472.9866120777562" cy="-265.33946869654113" r="75.52710573602356" fill="hsl(234, 88%, 56.5%)" opacity="0.28"/>
  <circle cx="372.7036123454881" cy="-267.3505343456367" r="77.05365042946428" fill="hsl(239, 88%, 56.5%)" opacity="0.28"/>
  <circle cx="205.65325744006893" cy="-96.59090368154554" r="53.70719368235672" fill="hsl(244, 88%, 56.5%)" opacity="0.28"/>
  <circle cx="12.735300327149403" cy="166.62850080158336" r="26.952360160289995" fill="hsl(249, 88%, 56.5%)" opacity="0.28"/>
  <circle cx="-158.81721484305734" cy="398.51148025868395" r="21.387420417215843" fill="hsl(254, 88%, 56.5%)" opacity="0.28"/>
  <circle cx="-267.0022492537519" cy="489.9998461795799" r="42.128754388882136" fill="hsl(259, 88%, 56.5%)" opacity="0.28"/>
  <circle cx="-285.3323333962161" cy="398.0651905265243" r="70.10687527530123" fill="hsl(264, 88%, 56.5%)" opacity="0.28"/>
  <circle cx="-209.3196233883412" cy="165.945818371771" r="79.59882776121457" fill="hsl(269, 88%, 56.5%)" opacity="0.28"/>
  <circle cx="-57.57468167599535" cy="-97.18890259506446" r="61.87775450545502" fill="hsl(274, 88%, 56.5%)" opacity="0.28"/>
  <circle cx="132.75003771978126" cy="-267.5826015098444" r="33.236328534451516" fill="hsl(279, 88%, 56.5%)" opacity="0.28"/>
  <circle cx="315.0564056842593" cy="-265.0964592979589" r="20.007344799241405" fill="hsl(284, 88%, 56.5%)" opacity="0.28"/>
  <circle cx="444.70946518287394" cy="-90.8997474887014" r="34.353469937392646" fill="hsl(289, 88%, 56.5%)" opacity="0.28"/>
  <circle cx="489.9656254418342" cy="173.0800984553271" r="63.08494265743475" fill="hsl(294, 88%, 56.5%)" opacity="0.28"/>
  <circle cx="439.7446000659788" cy="402.6892321877798" r="79.78617944253611" fill="hsl(299, 88%, 56.5%)" opacity="0.28"/>
  <circle cx="306.3422475868093" cy="489.9388903725996" r="69.10214021417414" fill="hsl(304, 88%, 56.5%)" opacity="0.28"/>
  <circle cx="122.42011646092058" cy="393.79419545195145" r="40.855681366933496" fill="hsl(309, 88%, 56.5%)" opacity="0.28"/>
  <circle cx="-66.99124110349891" cy="159.4734997493133" r="21.016466899748213" fill="hsl(314, 88%, 56.5%)" opacity="0.28"/>
  <circle cx="-215.51731882264352" cy="-102.81851218449268" r="27.824579100523312" fill="hsl(319, 88%, 56.5%)" opacity="0.28"/>
  <circle cx="-286.79375284281514" cy="-269.7218087112614" r="55.02067100908421" fill="hsl(324, 88%, 56.5%)" opacity="0.28"/>
  <circle cx="-263.3695862633352" cy="-262.7391615385028" r="77.60078114590371" fill="hsl(329, 88%, 56.5%)" opacity="0.28"/>
  <circle cx="-150.9798720092298" cy="-85.15461873843941" r="74.8048603847031" fill="hsl(334, 88%, 56.5%)" opacity="0.28"/>
  <circle cx="22.85846814177971" cy="179.51103437503747" r="49.203465379281" fill="hsl(339, 88%, 56.5%)" opacity="0.28"/>
  <circle cx="215.5837456966603" cy="406.78140562774905" r="24.334400630740333" fill="hsl(344, 88%, 56.5%)" opacity="0.28"/>
  <circle cx="380.0100911809412" cy="489.76768822203894" r="23.06216957932126" fill="hsl(349, 88%, 56.5%)" opacity="0.28"/>
  <circle cx="475.8802006507942" cy="389.4401367573752" r="46.556455586504384" fill="hsl(354, 88%, 56.5%)" opacity="0.28"/>
  <circle cx="479.7217277210415" cy="152.98436634882734" r="73.21672044673667" fill="hsl(359, 88%, 56.5%)" opacity="0.28"/>
  <circle cx="390.59413258694605" cy="-108.3907794571378" r="78.53163959763124" fill="hsl(364, 88%, 56.5%)" opacity="0.28"/>
  <circle cx="230.318958970884" cy="-271.7564854886591" r="57.61470088286109" fill="hsl(369, 88%, 56.5%)" opacity="0.28"/>
  <circle cx="38.13715916616349" cy="-260.27930753954365" r="29.69684129338077" fill="hsl(374, 88%, 56.5%)" opacity="0.28"/>
  <text x="512" y="512" font-family="Arial, sans-serif" font-size="48" fill="white" text-anchor="middle" dominant-baseline="middle" opacity="0.3">
    Iteration 9
  </text>
  <text x="512" y="580" font-family="Arial, sans-serif" font-size="24" fill="white" text-anchor="middle" opacity="0.2">
    Demo Placeholder
  </text>
</svg>