<?xml version="1.0" encoding="UTF-8"?>
<svg width="1024" height="1024" xmlns="http://www.w3.org/2000/svg">
  <rect width="1024" height="1024" fill="hsl(24, 78%, 44%)"/>
  <circle cx="-157.31284840469561" cy="-122.23883109362805" r="27.295925140762154" fill="hsl(24, 78%, 64%)" opacity="0.18"/>
  <circle cx="-232.36024000613298" cy="95.78785442261722" r="21.232271760105846" fill="hsl(29, 78%, 64%)" opacity="0.18"/>
  <circle cx="-226.03425338546708" cy="315.7955778204958" r="41.617535054032224" fill="hsl(34, 78%, 64%)" opacity="0.18"/>
  <circle cx="-139.88371069393327" cy="434.3112690704787" r="69.70959796156367" fill="hsl(39, 78%, 64%)" opacity="0.18"/>
  <circle cx="4.9987306123652075" cy="395.5951467189406" r="79.68074739870146" fill="hsl(44, 78%, 64%)" opacity="0.18"/>
  <circle cx="173.14079594985728" cy="217.85600806390877" r="62.3635545572527" fill="hsl(49, 78%, 64%)" opacity="0.18"/>
  <circle cx="323.3754435643883" cy="-15.312652734503729" r="33.67936667331891" fill="hsl(54, 78%, 64%)" opacity="0.18"/>
  <circle cx="418.91999210341123" cy="-194.24797114197787" r="20.000293803478897" fill="hsl(59, 78%, 64%)" opacity="0.18"/>
  <circle cx="436.3818038519498" cy="-234.79387097000318" r="33.90281245998695" fill="hsl(64, 78%, 64%)" opacity="0.18"/>
  <circle cx="371.48561829198667" cy="-117.8809819822977" r="62.60501110479923" fill="hsl(69, 78%, 64%)" opacity="0.18"/>
  <circle cx="240.12028498219723" cy="101.50473731593726" r="79.71822067084611" fill="hsl(74, 78%, 64%)" opacity="0.18"/>
  <circle cx="74.44861904298483" cy="320.1827551423178" r="69.5086352047135" fill="hsl(79, 78%, 64%)" opacity="0.18"/>
  <circle cx="-84.96717770238573" cy="435.30538277481355" r="41.36290050004804" fill="hsl(84, 78%, 64%)" opacity="0.18"/>
  <circle cx="-199.09655839036782" cy="392.72864959718424" r="21.158075243613297" fill="hsl(89, 78%, 64%)" opacity="0.18"/>
  <circle cx="-239.99667022723918" cy="212.47705850267653" r="27.470382596849714" fill="hsl(94, 78%, 64%)" opacity="0.18"/>
  <circle cx="-197.65373939406567" cy="-20.67425070815969" r="54.49631628988857" fill="hsl(99, 78%, 64%)" opacity="0.18"/>
  <circle cx="-82.43479212014788" cy="-197.07057422376727" r="77.38835752182882" fill="hsl(104, 78%, 64%)" opacity="0.18"/>
  <circle cx="77.45055490059177" cy="-233.7499648261708" r="75.09966915608169" fill="hsl(109, 78%, 64%)" opacity="0.18"/>
  <circle cx="242.8567925210579" cy="-113.46153198377124" r="49.73446072128788" fill="hsl(114, 78%, 64%)" opacity="0.18"/>
  <circle cx="373.28670502755114" cy="107.22119477903844" r="24.61338787474488" fill="hsl(119, 78%, 64%)" opacity="0.18"/>
  <circle cx="436.80650093625593" cy="324.50768080298724" r="22.832649139801287" fill="hsl(124, 78%, 64%)" opacity="0.18"/>
  <circle cx="417.8643188783922" cy="436.2046965160096" r="46.02944749706681" fill="hsl(129, 78%, 64%)" opacity="0.18"/>
  <circle cx="321.0978656534197" cy="389.77939011425786" r="72.87675351438808" fill="hsl(134, 78%, 64%)" opacity="0.18"/>
  <circle cx="170.19894385885084" cy="207.0663086138988" r="78.69127785213509" fill="hsl(139, 78%, 64%)" opacity="0.18"/>
  <circle cx="2.112872333877803" cy="-26.001730784796976" r="58.12717364923607" fill="hsl(144, 78%, 64%)" opacity="0.18"/>
  <circle cx="-142.00701640550184" cy="-199.80918736405022" r="30.090983473610972" fill="hsl(149, 78%, 64%)" opacity="0.18"/>
  <circle cx="-226.87514723904934" cy="-232.61169847821253" r="20.359051277214146" fill="hsl(154, 78%, 64%)" opacity="0.18"/>
  <circle cx="-231.71284185917358" cy="-108.98173059691973" r="37.87887064030805" fill="hsl(159, 78%, 64%)" opacity="0.18"/>
  <circle cx="-155.3356639023699" cy="112.93561061372075" r="66.54280043725072" fill="hsl(164, 78%, 64%)" opacity="0.18"/>
  <circle cx="-16.443410279668257" cy="328.769132028237" r="79.99735580321801" fill="hsl(169, 78%, 64%)" opacity="0.18"/>
  <circle cx="150.9582512854038" cy="437.008956033581" r="65.87248058360072" fill="hsl(174, 78%, 64%)" opacity="0.18"/>
  <circle cx="305.88355570466433" cy="386.7482021061346" r="37.15451991511547" fill="hsl(179, 78%, 64%)" opacity="0.18"/>
  <circle cx="410.4013852473934" cy="201.62528816392035" r="20.246634396706526" fill="hsl(184, 78%, 64%)" opacity="0.18"/>
  <circle cx="438.92213005479175" cy="-31.293586740715995" r="30.693855999290015" fill="hsl(189, 78%, 64%)" opacity="0.18"/>
  <circle cx="384.46291710225904" cy="-202.46303628231033" r="58.89105736128156" fill="hsl(194, 78%, 64%)" opacity="0.18"/>
  <circle cx="260.35726105202673" cy="-231.3793937450236" r="78.91386158852264" fill="hsl(199, 78%, 64%)" opacity="0.18"/>
  <circle cx="96.99055484126268" cy="-104.44284438359261" r="72.35339481438047" fill="hsl(204, 78%, 64%)" opacity="0.18"/>
  <circle cx="-65.63933423657323" cy="118.6463691990049" r="45.241319935858726" fill="hsl(209, 78%, 64%)" opacity="0.18"/>
  <circle cx="-187.714937419558" cy="332.9659039897547" r="22.504353562530987" fill="hsl(214, 78%, 64%)" opacity="0.18"/>
  <circle cx="-239.34788951299475" cy="437.71793394145953" r="25.04675772114205" fill="hsl(219, 78%, 64%)" opacity="0.18"/>
  <text x="512" y="512" font-family="Arial, sans-serif" font-size="48" fill="white" text-anchor="middle" dominant-baseline="middle" opacity="0.3">
    Iteration 4
  </text>
  <text x="512" y="580" font-family="Arial, sans-serif" font-size="24" fill="white" text-anchor="middle" opacity="0.2">
    Demo Placeholder
  </text>
</svg>