<?xml version="1.0" encoding="UTF-8"?>
<svg width="1024" height="1024" xmlns="http://www.w3.org/2000/svg">
  <rect width="1024" height="1024" fill="hsl(12, 74%, 47%)"/>
  <circle cx="390.97517658421816" cy="-33.16698769508557" r="77.27892280477045" fill="hsl(12, 74%, 67%)" opacity="0.14"/>
  <circle cx="291.51108611326606" cy="-189.3030854454596" r="54.23360024179602" fill="hsl(17, 74%, 67%)" opacity="0.14"/>
  <circle cx="145.1584025791575" cy="-209.37542162542752" r="27.295925140762154" fill="hsl(22, 74%, 67%)" opacity="0.14"/>
  <circle cx="-12.250632860678351" cy="-83.94366289064612" r="21.232271760105846" fill="hsl(27, 74%, 67%)" opacity="0.14"/>
  <circle cx="-142.17679849853704" cy="127.99967470062285" r="41.617535054032224" fill="hsl(32, 74%, 67%)" opacity="0.14"/>
  <circle cx="-212.80963765283104" cy="326.7743277732032" r="69.70959796156367" fill="hsl(37, 74%, 67%)" opacity="0.14"/>
  <circle cx="-206.8557678922043" cy="418.89347104742956" r="79.68074739870146" fill="hsl(42, 74%, 67%)" opacity="0.14"/>
  <circle cx="-125.77290418252542" cy="361.03203204011436" r="62.3635545572527" fill="hsl(47, 74%, 67%)" opacity="0.14"/>
  <circle cx="10.587040576343725" cy="180.4031496263218" r="33.67936667331891" fill="hsl(52, 74%, 67%)" opacity="0.14"/>
  <circle cx="168.83839618810097" cy="-38.04059039059868" r="20.000293803478897" fill="hsl(57, 74%, 67%)" opacity="0.14"/>
  <circle cx="310.2357115900125" cy="-191.56168380309663" r="33.90281245998695" fill="hsl(62, 74%, 67%)" opacity="0.14"/>
  <circle cx="400.15999256791645" cy="-207.95676154601927" r="62.60501110479923" fill="hsl(67, 74%, 67%)" opacity="0.14"/>
  <circle cx="416.5946389194822" cy="-79.51496237671367" r="79.71822067084611" fill="hsl(72, 74%, 67%)" opacity="0.14"/>
  <circle cx="355.5158760395169" cy="133.355528597023" r="69.5086352047135" fill="hsl(77, 74%, 67%)" opacity="0.14"/>
  <circle cx="231.87791527736212" cy="330.538393277068" r="41.36290050004804" fill="hsl(82, 74%, 67%)" opacity="0.14"/>
  <circle cx="75.95164145222103" cy="419.2954493371458" r="21.158075243613297" fill="hsl(87, 74%, 67%)" opacity="0.14"/>
  <circle cx="-74.08675548459831" cy="357.8828664449442" r="27.470382596849714" fill="hsl(92, 74%, 67%)" opacity="0.14"/>
  <circle cx="-181.5026431909344" cy="175.18394193274395" r="54.49631628988857" fill="hsl(97, 74%, 67%)" opacity="0.14"/>
  <circle cx="-219.99686609622512" cy="-42.87516525192498" r="77.38835752182882" fill="hsl(102, 74%, 67%)" opacity="0.14"/>
  <circle cx="-180.1446959002971" cy="-193.73784973257364" r="75.09966915608169" fill="hsl(107, 74%, 67%)" opacity="0.14"/>
  <circle cx="-71.70333376013917" cy="-206.45103370348306" r="49.73446072128788" fill="hsl(112, 74%, 67%)" opacity="0.14"/>
  <circle cx="78.77699284761579" cy="-75.0355080941554" r="24.61338787474488" fill="hsl(117, 74%, 67%)" opacity="0.14"/>
  <circle cx="234.4534517845251" cy="138.70195197711172" r="22.832649139801287" fill="hsl(122, 74%, 67%)" opacity="0.14"/>
  <circle cx="357.2110164965187" cy="334.2372792988622" r="46.02944749706681" fill="hsl(127, 74%, 67%)" opacity="0.14"/>
  <circle cx="416.9943538223585" cy="419.6071541079072" r="72.87675351438808" fill="hsl(132, 74%, 67%)" opacity="0.14"/>
  <circle cx="399.16641776789857" cy="354.6607903404621" r="78.69127785213509" fill="hsl(137, 74%, 67%)" opacity="0.14"/>
  <circle cx="308.0921088502774" cy="169.94347769128404" r="58.12717364923607" fill="hsl(142, 74%, 67%)" opacity="0.14"/>
  <circle cx="166.06959422009493" cy="-47.66934541309101" r="30.090983473610972" fill="hsl(147, 74%, 67%)" opacity="0.14"/>
  <circle cx="7.870938667179104" cy="-195.83096797251847" r="20.359051277214146" fill="hsl(152, 74%, 67%)" opacity="0.14"/>
  <circle cx="-127.77130955811938" cy="-204.85866380808625" r="37.87887064030805" fill="hsl(157, 74%, 67%)" opacity="0.14"/>
  <text x="512" y="512" font-family="Arial, sans-serif" font-size="48" fill="white" text-anchor="middle" dominant-baseline="middle" opacity="0.3">
    Iteration 2
  </text>
  <text x="512" y="580" font-family="Arial, sans-serif" font-size="24" fill="white" text-anchor="middle" opacity="0.2">
    Demo Placeholder
  </text>
</svg>