<?xml version="1.0" encoding="UTF-8"?>
<svg width="1024" height="1024" xmlns="http://www.w3.org/2000/svg">
  <rect width="1024" height="1024" fill="hsl(36, 82%, 41%)"/>
  <circle cx="-0.5895793516133097" cy="445.6613031941318" r="41.617535054032224" fill="hsl(36, 82%, 61%)" opacity="0.22"/>
  <circle cx="177.44319571161358" cy="429.177933364715" r="69.70959796156367" fill="hsl(41, 82%, 61%)" opacity="0.22"/>
  <circle cx="336.5151755387641" cy="257.87703792678053" r="79.68074739870146" fill="hsl(46, 82%, 61%)" opacity="0.22"/>
  <circle cx="437.679991638906" cy="12.324104655115207" r="62.3635545572527" fill="hsl(51, 82%, 61%)" opacity="0.22"/>
  <circle cx="456.1689687844174" cy="-191.99348506219616" r="33.67936667331891" fill="hsl(56, 82%, 61%)" opacity="0.22"/>
  <circle cx="387.4553605444565" cy="-258.98197623069626" r="20.000293803478897" fill="hsl(61, 82%, 61%)" opacity="0.22"/>
  <circle cx="248.36265468703238" cy="-157.13563472979206" r="33.90281245998695" fill="hsl(66, 82%, 61%)" opacity="0.22"/>
  <circle cx="72.94559663374865" cy="65.64561363965713" r="62.60501110479923" fill="hsl(71, 82%, 61%)" opacity="0.22"/>
  <circle cx="-95.84759992017311" cy="304.5842667164705" r="79.71822067084611" fill="hsl(76, 82%, 61%)" opacity="0.22"/>
  <circle cx="-216.69047358980123" cy="447.30374243917953" r="69.5086352047135" fill="hsl(81, 82%, 61%)" opacity="0.22"/>
  <circle cx="-259.99647435825324" cy="426.68084132207065" r="41.36290050004804" fill="hsl(86, 82%, 61%)" opacity="0.22"/>
  <circle cx="-215.16278288783428" cy="252.41483600223958" r="21.158075243613297" fill="hsl(91, 82%, 61%)" opacity="0.22"/>
  <circle cx="-93.16625048015658" cy="6.465751763048516" r="27.470382596849714" fill="hsl(96, 82%, 61%)" opacity="0.22"/>
  <circle cx="76.12411695356775" cy="-195.49271401736058" r="54.49631628988857" fill="hsl(101, 82%, 61%)" opacity="0.22"/>
  <circle cx="251.26013325759072" cy="-258.4763391943839" r="77.38835752182882" fill="hsl(106, 82%, 61%)" opacity="0.22"/>
  <circle cx="389.36239355858356" cy="-152.86294070097688" r="75.09966915608169" fill="hsl(111, 82%, 61%)" opacity="0.22"/>
  <circle cx="456.61864805015335" cy="71.67584989653754" r="49.73446072128788" fill="hsl(116, 82%, 61%)" opacity="0.22"/>
  <circle cx="436.5622199888859" cy="309.53593086476405" r="24.61338787474488" fill="hsl(121, 82%, 61%)" opacity="0.22"/>
  <circle cx="334.10362245656205" cy="448.84798945805795" r="22.832649139801287" fill="hsl(126, 82%, 61%)" opacity="0.22"/>
  <circle cx="174.32829349760678" cy="424.0913877090302" r="46.02944749706681" fill="hsl(131, 82%, 61%)" opacity="0.22"/>
  <circle cx="-3.645193999423512" cy="246.9095422528211" r="72.87675351438808" fill="hsl(136, 82%, 61%)" opacity="0.22"/>
  <circle cx="-156.24272325288428" cy="0.6338435501918696" r="78.69127785213509" fill="hsl(141, 82%, 61%)" opacity="0.22"/>
  <circle cx="-246.10309707664044" cy="-198.9083991350691" r="58.12717364923607" fill="hsl(146, 82%, 61%)" opacity="0.22"/>
  <circle cx="-251.22536196853673" cy="-257.8693511345344" r="30.090983473610972" fill="hsl(151, 82%, 61%)" opacity="0.22"/>
  <circle cx="-170.3554088378034" cy="-148.51875543256702" r="20.359051277214146" fill="hsl(156, 82%, 61%)" opacity="0.22"/>
  <circle cx="-23.293022649060504" cy="77.7140941620086" r="37.87887064030805" fill="hsl(161, 82%, 61%)" opacity="0.22"/>
  <circle cx="153.95579547866285" cy="314.4283534990751" r="66.54280043725072" fill="hsl(166, 82%, 61%)" opacity="0.22"/>
  <circle cx="317.9943530990564" cy="450.29360765007976" r="79.99735580321801" fill="hsl(171, 82%, 61%)" opacity="0.22"/>
  <circle cx="428.660290261946" cy="421.41030463464807" r="65.87248058360072" fill="hsl(176, 82%, 61%)" opacity="0.22"/>
  <circle cx="458.8587259403677" cy="241.36271317499646" r="37.15451991511547" fill="hsl(181, 82%, 61%)" opacity="0.22"/>
  <circle cx="401.1960298729802" cy="-5.169971144181034" r="20.246634396706526" fill="hsl(186, 82%, 61%)" opacity="0.22"/>
  <circle cx="269.7900411139106" cy="-202.23957470811933" r="30.693855999290015" fill="hsl(191, 82%, 61%)" opacity="0.22"/>
  <circle cx="96.8135286554546" cy="-257.1611836632022" r="58.89105736128156" fill="hsl(196, 82%, 61%)" opacity="0.22"/>
  <circle cx="-75.38282448578343" cy="-144.10430714404205" r="78.91386158852264" fill="hsl(201, 82%, 61%)" opacity="0.22"/>
  <circle cx="-204.6393455030614" cy="83.75863925997464" r="72.35339481438047" fill="hsl(206, 82%, 61%)" opacity="0.22"/>
  <circle cx="-259.3095300725827" cy="319.26015139828826" r="45.241319935858726" fill="hsl(211, 82%, 61%)" opacity="0.22"/>
  <circle cx="-226.00821032238457" cy="451.64018829961395" r="22.504353562530987" fill="hsl(216, 82%, 61%)" opacity="0.22"/>
  <circle cx="-112.88871075144476" cy="418.63835011412436" r="25.04675772114205" fill="hsl(221, 82%, 61%)" opacity="0.22"/>
  <circle cx="52.35336996480171" cy="235.7759170084025" r="50.53105775316241" fill="hsl(226, 82%, 61%)" opacity="0.22"/>
  <circle cx="229.26100744798057" cy="-10.944051423598552" r="75.52710573602356" fill="hsl(231, 82%, 61%)" opacity="0.22"/>
  <circle cx="374.521042172657" cy="-205.4852989224579" r="77.05365042946428" fill="hsl(236, 82%, 61%)" opacity="0.22"/>
  <circle cx="452.56875151741013" cy="-256.3520369986172" r="53.70719368235672" fill="hsl(241, 82%, 61%)" opacity="0.22"/>
  <circle cx="444.2953342256211" cy="-139.62084392015342" r="26.952360160289995" fill="hsl(246, 82%, 61%)" opacity="0.22"/>
  <circle cx="351.72641139583516" cy="89.8077762329256" r="21.387420417215843" fill="hsl(251, 82%, 61%)" opacity="0.22"/>
  <circle cx="197.52608379083284" cy="324.02995848155115" r="42.128754388882136" fill="hsl(256, 82%, 61%)" opacity="0.22"/>
  <circle cx="19.44796953275329" cy="452.8873506916389" r="70.10687527530123" fill="hsl(261, 82%, 61%)" opacity="0.22"/>
  <circle cx="-138.90819831666832" cy="415.77630785449173" r="79.59882776121457" fill="hsl(266, 82%, 61%)" opacity="0.22"/>
  <circle cx="-238.77130700346328" cy="230.15073329245928" r="61.87775450545502" fill="hsl(271, 82%, 61%)" opacity="0.22"/>
  <circle cx="-255.69138467343026" cy="-16.686764798320482" r="33.236328534451516" fill="hsl(276, 82%, 61%)" opacity="0.22"/>
  <circle cx="-185.52580620462265" cy="-208.64465412345743" r="20.007344799241405" fill="hsl(281, 82%, 61%)" opacity="0.22"/>
  <text x="512" y="512" font-family="Arial, sans-serif" font-size="48" fill="white" text-anchor="middle" dominant-baseline="middle" opacity="0.3">
    Iteration 6
  </text>
  <text x="512" y="580" font-family="Arial, sans-serif" font-size="24" fill="white" text-anchor="middle" opacity="0.2">
    Demo Placeholder
  </text>
</svg>